<svg width="932" height="712" xmlns="http://www.w3.org/2000/svg">

 <g label="Warstwa 1" id="imagebot_2">
  <g transform="translate(-3.536 -5.32843) matrix(1 0 0 1 91.881 -228.75)" label="Warstwa 1" fill="#000000" id="imagebot_3">
   <g fill="#000000" transform="matrix(-1 0 0 1 755.44 -.88158)" id="imagebot_23">
    <path fill-rule="evenodd" stroke="#b28b00" stroke-width="1px" fill="#c59b00" d="M347.09,896.45C296.828,861.839 255.099,892.2295 216.89,926.597C266.221,939.999 318.46,946.078 347.09,896.45z" id="imagebot_40"/>
    <path fill-rule="evenodd" stroke="#b28b00" stroke-width="1px" fill="#c59b00" d="M335.01,866.66C332.7797,805.674 283.489,790.333 233.11,780.186C251.801,827.765 278.105,873.309 335.01,866.66z" id="imagebot_39"/>
    <path fill-rule="evenodd" stroke="#b28b00" stroke-width="1px" fill="#c59b00" d="M257.46,868.97C210.302,830.235 166.155,856.991 125.17,888.006C173.192,905.529 224.732,916.001 257.46,868.97z" id="imagebot_38"/>
    <path fill-rule="evenodd" stroke="#b28b00" stroke-width="1px" fill="#c59b00" d="M213.73,840.05C243.116,786.565 208.6867,748.1 170.654,713.53C162.2763,763.958 161.4764,816.55 213.73,840.05z" id="imagebot_37"/>
    <path fill-rule="evenodd" stroke="#b28b00" stroke-width="1px" fill="#c59b00" d="M175.56,838.86C140.87,788.66 91.067,802.25 43.14,820.81C84.496,850.857 131.174,875.092 175.56,838.866L175.56,838.86z" id="imagebot_36"/>
    <path fill-rule="evenodd" stroke="#b28b00" stroke-width="1px" fill="#c59b00" d="M126.56,794.08C171.454,752.743 151.072,705.314 126.03229,660.43C102.02629,705.561 84.51529,755.155 126.56,794.08z" id="imagebot_35"/>
    <path fill-rule="evenodd" stroke="#b28b00" stroke-width="1px" fill="#c59b00" d="M102.71,789.03C78.197,733.143 26.72,737.014 -23.86,746.117C11.026,783.481 52.242,816.152 102.71,789.03z" id="imagebot_34"/>
    <path fill-rule="evenodd" stroke="#b28b00" stroke-width="1px" fill="#c59b00" d="M61.808,735C113.59,702.7 102.36,652.32 86.078,603.57C54.118,643.47 27.712,688.95 61.808,735z" id="imagebot_33"/>
    <path fill-rule="evenodd" stroke="#b28b00" stroke-width="1px" fill="#c59b00" d="M43.732,727.44C30.23,667.926 -21.05,661.992 -72.438,661.365C-45.247,704.652 -10.953,744.528 43.732,727.44z" id="imagebot_32"/>
    <path fill-rule="evenodd" stroke="#b28b00" stroke-width="1px" fill="#c59b00" d="M28.354,639.98C83.493,613.83 78.104,562.49 67.512,512.2C31.194,548.17 -0.246,590.33 28.354,639.98z" id="imagebot_31"/>
    <path fill-rule="evenodd" stroke="#b28b00" stroke-width="1px" fill="#c59b00" d="M19.165,657C12.8258,596.303 -37.388,584.323 -88.345,577.597C-66.486,623.807 -37.17,667.472 19.165,657z" id="imagebot_30"/>
    <path fill-rule="evenodd" stroke="#b28b00" stroke-width="1px" fill="#c59b00" d="M5.1751,540.49C64.7641,527.32 70.9831,476.07 71.8961,424.68C28.4581,451.63 -11.6079,485.7 5.1751,540.49z" id="imagebot_29"/>
    <path fill-rule="evenodd" stroke="#b28b00" stroke-width="1px" fill="#c59b00" d="M-6.4859,585.25C10.7591,526.71 -31.1119,496.52 -75.6689,470.9C-73.0479,521.952 -62.5619,573.49 -6.4859,585.25z" id="imagebot_28"/>
    <path fill-rule="evenodd" stroke="#b28b00" stroke-width="1px" fill="#c59b00" d="M28.616,425.5C89.567,428.5522 109.113,380.773 123.579,331.456C74.562,345.963 26.914,368.229 28.616,425.5z" id="imagebot_27"/>
    <path fill-rule="evenodd" stroke="#b28b00" stroke-width="1px" fill="#c59b00" d="M-10.627,491.19C26.002,442.378 -2.6649,399.447 -35.448,359.87C-50.847,408.614 -59.048,460.56 -10.627,491.19z" id="imagebot_26"/>
    <path fill-rule="evenodd" stroke="#b28b00" stroke-width="1px" fill="#c59b00" d="M55.278,338.67C116.2,335.15 130.5,285.55 139.59,234.96C92.411,254.65 47.431,281.91 55.278,338.67z" id="imagebot_25"/>
    <path fill-rule="evenodd" stroke="#b28b00" stroke-width="1px" fill="#c59b00" d="M16.39,391.33C62.167,350.98 42.814,303.12 18.751,257.7C-6.225,302.31 -24.804,351.51 16.39,391.33z" id="imagebot_24"/>
   </g>
   <g fill="#000000" id="imagebot_5">
    <path fill-rule="evenodd" stroke="#b28b00" stroke-width="1px" fill="#c59b00" d="M347.09,896.45C296.828,861.839 255.099,892.2295 216.89,926.597C266.221,939.999 318.46,946.078 347.09,896.45z" id="imagebot_22"/>
    <path fill-rule="evenodd" stroke="#b28b00" stroke-width="1px" fill="#c59b00" d="M335.01,866.66C332.7797,805.674 283.489,790.333 233.11,780.186C251.801,827.765 278.105,873.309 335.01,866.66z" id="imagebot_21"/>
    <path fill-rule="evenodd" stroke="#b28b00" stroke-width="1px" fill="#c59b00" d="M257.46,868.97C210.302,830.235 166.155,856.991 125.17,888.006C173.192,905.529 224.732,916.001 257.46,868.97z" id="imagebot_20"/>
    <path fill-rule="evenodd" stroke="#b28b00" stroke-width="1px" fill="#c59b00" d="M213.73,840.05C243.116,786.565 208.6867,748.1 170.654,713.53C162.2763,763.958 161.4764,816.55 213.73,840.05z" id="imagebot_19"/>
    <path fill-rule="evenodd" stroke="#b28b00" stroke-width="1px" fill="#c59b00" d="M175.56,838.86C140.87,788.66 91.067,802.25 43.14,820.81C84.496,850.857 131.174,875.092 175.56,838.866L175.56,838.86z" id="imagebot_18"/>
    <path fill-rule="evenodd" stroke="#b28b00" stroke-width="1px" fill="#c59b00" d="M126.56,794.08C171.454,752.743 151.072,705.314 126.03229,660.43C102.02629,705.561 84.51529,755.155 126.56,794.08z" id="imagebot_17"/>
    <path fill-rule="evenodd" stroke="#b28b00" stroke-width="1px" fill="#c59b00" d="M102.71,789.03C78.197,733.143 26.72,737.014 -23.86,746.117C11.026,783.481 52.242,816.152 102.71,789.03z" id="imagebot_16"/>
    <path fill-rule="evenodd" stroke="#b28b00" stroke-width="1px" fill="#c59b00" d="M61.808,735C113.59,702.7 102.36,652.32 86.078,603.57C54.118,643.47 27.712,688.95 61.808,735z" id="imagebot_15"/>
    <path fill-rule="evenodd" stroke="#b28b00" stroke-width="1px" fill="#c59b00" d="M43.732,727.44C30.23,667.926 -21.05,661.992 -72.438,661.365C-45.247,704.652 -10.953,744.528 43.732,727.44z" id="imagebot_14"/>
    <path fill-rule="evenodd" stroke="#b28b00" stroke-width="1px" fill="#c59b00" d="M28.354,639.98C83.493,613.83 78.104,562.49 67.512,512.2C31.194,548.17 -0.246,590.33 28.354,639.98z" id="imagebot_13"/>
    <path fill-rule="evenodd" stroke="#b28b00" stroke-width="1px" fill="#c59b00" d="M19.165,657C12.8258,596.303 -37.388,584.323 -88.345,577.597C-66.486,623.807 -37.17,667.472 19.165,657z" id="imagebot_12"/>
    <path fill-rule="evenodd" stroke="#b28b00" stroke-width="1px" fill="#c59b00" d="M5.1751,540.49C64.7641,527.32 70.9831,476.07 71.8961,424.68C28.4581,451.63 -11.6079,485.7 5.1751,540.49z" id="imagebot_11"/>
    <path fill-rule="evenodd" stroke="#b28b00" stroke-width="1px" fill="#c59b00" d="M-6.4859,585.25C10.7591,526.71 -31.1119,496.52 -75.6689,470.9C-73.0479,521.952 -62.5619,573.49 -6.4859,585.25z" id="imagebot_10"/>
    <path fill-rule="evenodd" stroke="#b28b00" stroke-width="1px" fill="#c59b00" d="M28.616,425.5C89.567,428.5522 109.113,380.773 123.579,331.456C74.562,345.963 26.914,368.229 28.616,425.5z" id="imagebot_9"/>
    <path fill-rule="evenodd" stroke="#b28b00" stroke-width="1px" fill="#c59b00" d="M-10.627,491.19C26.002,442.378 -2.6649,399.447 -35.448,359.87C-50.847,408.614 -59.048,460.56 -10.627,491.19z" id="imagebot_8"/>
    <path fill-rule="evenodd" stroke="#b28b00" stroke-width="1px" fill="#c59b00" d="M55.278,338.67C116.2,335.15 130.5,285.55 139.59,234.96C92.411,254.65 47.431,281.91 55.278,338.67z" id="imagebot_7"/>
    <path fill-rule="evenodd" stroke="#b28b00" stroke-width="1px" fill="#c59b00" d="M16.39,391.33C62.167,350.98 42.814,303.12 18.751,257.7C-6.225,302.31 -24.804,351.51 16.39,391.33z" id="imagebot_6"/>
   </g>
   <path stroke="#b28b00" stroke-linecap="round" stroke-width="0.84947" fill="#c59b00" transform="matrix(1.3462 0 0 1.0294 -97.05 -48.372)" d="M365.68,905.89A13.132,17.173 0 1 1 339.416,905.89A13.132,17.173 0 1 1 365.68,905.89z" id="imagebot_4"/>
  </g>
  <title>Warstwa 1</title>
 </g>
 <metadata>image/svg+xmlOpenclipartLaurel wreath2011-08-04T18:13:55Simplification of zeimusus Laurel wreath. \n\nTaken from: http://commons.wikimedia.org/wiki/Image:SPQRomani.svg The SPQR removed from the middle, and the drop shadow blurredhttps://openclipart.org/detail/153649/-by-worker-153649workerexternalsourcelaurelromanvictorywreath</metadata>
</svg>