<svg width="932" height="712" xmlns="http://www.w3.org/2000/svg">

 <g id="imagebot_1" label="Warstwa 1">
  <g id="imagebot_2" fill="#000000" label="Warstwa 1" transform="translate(0.00000762939 0) matrix(1 0 0 1 88.345 -234.078)">
   <g id="imagebot_22" transform="matrix(-1 0 0 1 755.44 -.88158)" fill="#000000">
    <path id="imagebot_39" d="M347.09,896.45C296.828,861.839 255.099,892.2295 216.89,926.597C266.221,939.999 318.46,946.078 347.09,896.45z" fill="#a8a8a8" stroke-width="1px" stroke="#7c7c7c" fill-rule="evenodd"/>
    <path id="imagebot_38" d="M335.01,866.66C332.7797,805.674 283.489,790.333 233.11,780.186C251.801,827.765 278.105,873.309 335.01,866.66z" fill="#a8a8a8" stroke-width="1px" stroke="#7c7c7c" fill-rule="evenodd"/>
    <path id="imagebot_37" d="M257.46,868.97C210.302,830.235 166.155,856.991 125.17,888.006C173.192,905.529 224.732,916.001 257.46,868.97z" fill="#a8a8a8" stroke-width="1px" stroke="#7c7c7c" fill-rule="evenodd"/>
    <path id="imagebot_36" d="M213.73,840.05C243.116,786.565 208.6867,748.1 170.654,713.53C162.2763,763.958 161.4764,816.55 213.73,840.05z" fill="#a8a8a8" stroke-width="1px" stroke="#7c7c7c" fill-rule="evenodd"/>
    <path id="imagebot_35" d="M175.56,838.86C140.87,788.66 91.067,802.25 43.14,820.81C84.496,850.857 131.174,875.092 175.56,838.866L175.56,838.86z" fill="#a8a8a8" stroke-width="1px" stroke="#7c7c7c" fill-rule="evenodd"/>
    <path id="imagebot_34" d="M126.56,794.08C171.454,752.743 151.072,705.314 126.03229,660.43C102.02629,705.561 84.51529,755.155 126.56,794.08z" fill="#a8a8a8" stroke-width="1px" stroke="#7c7c7c" fill-rule="evenodd"/>
    <path id="imagebot_33" d="M102.71,789.03C78.197,733.143 26.72,737.014 -23.86,746.117C11.026,783.481 52.242,816.152 102.71,789.03z" fill="#a8a8a8" stroke-width="1px" stroke="#7c7c7c" fill-rule="evenodd"/>
    <path id="imagebot_32" d="M61.808,735C113.59,702.7 102.36,652.32 86.078,603.57C54.118,643.47 27.712,688.95 61.808,735z" fill="#a8a8a8" stroke-width="1px" stroke="#7c7c7c" fill-rule="evenodd"/>
    <path id="imagebot_31" d="M43.732,727.44C30.23,667.926 -21.05,661.992 -72.438,661.365C-45.247,704.652 -10.953,744.528 43.732,727.44z" fill="#a8a8a8" stroke-width="1px" stroke="#7c7c7c" fill-rule="evenodd"/>
    <path id="imagebot_30" d="M28.354,639.98C83.493,613.83 78.104,562.49 67.512,512.2C31.194,548.17 -0.246,590.33 28.354,639.98z" fill="#a8a8a8" stroke-width="1px" stroke="#7c7c7c" fill-rule="evenodd"/>
    <path id="imagebot_29" d="M19.165,657C12.8258,596.303 -37.388,584.323 -88.345,577.597C-66.486,623.807 -37.17,667.472 19.165,657z" fill="#a8a8a8" stroke-width="1px" stroke="#7c7c7c" fill-rule="evenodd"/>
    <path id="imagebot_28" d="M5.1751,540.49C64.7641,527.32 70.9831,476.07 71.8961,424.68C28.4581,451.63 -11.6079,485.7 5.1751,540.49z" fill="#a8a8a8" stroke-width="1px" stroke="#7c7c7c" fill-rule="evenodd"/>
    <path id="imagebot_27" d="M-6.4859,585.25C10.7591,526.71 -31.1119,496.52 -75.6689,470.9C-73.0479,521.952 -62.5619,573.49 -6.4859,585.25z" fill="#a8a8a8" stroke-width="1px" stroke="#7c7c7c" fill-rule="evenodd"/>
    <path id="imagebot_26" d="M28.616,425.5C89.567,428.5522 109.113,380.773 123.579,331.456C74.562,345.963 26.914,368.229 28.616,425.5z" fill="#a8a8a8" stroke-width="1px" stroke="#7c7c7c" fill-rule="evenodd"/>
    <path id="imagebot_25" d="M-10.627,491.19C26.002,442.378 -2.6649,399.447 -35.448,359.87C-50.847,408.614 -59.048,460.56 -10.627,491.19z" fill="#a8a8a8" stroke-width="1px" stroke="#7c7c7c" fill-rule="evenodd"/>
    <path id="imagebot_24" d="M55.278,338.67C116.2,335.15 130.5,285.55 139.59,234.96C92.411,254.65 47.431,281.91 55.278,338.67z" fill="#a8a8a8" stroke-width="1px" stroke="#7c7c7c" fill-rule="evenodd"/>
    <path id="imagebot_23" d="M16.39,391.33C62.167,350.98 42.814,303.12 18.751,257.7C-6.225,302.31 -24.804,351.51 16.39,391.33z" fill="#a8a8a8" stroke-width="1px" stroke="#7c7c7c" fill-rule="evenodd"/>
   </g>
   <g id="imagebot_4" fill="#000000">
    <path id="imagebot_21" d="M347.09,896.45C296.828,861.839 255.099,892.2295 216.89,926.597C266.221,939.999 318.46,946.078 347.09,896.45z" fill="#a8a8a8" stroke-width="1px" stroke="#7c7c7c" fill-rule="evenodd"/>
    <path id="imagebot_20" d="M335.01,866.66C332.7797,805.674 283.489,790.333 233.11,780.186C251.801,827.765 278.105,873.309 335.01,866.66z" fill="#a8a8a8" stroke-width="1px" stroke="#7c7c7c" fill-rule="evenodd"/>
    <path id="imagebot_19" d="M257.46,868.97C210.302,830.235 166.155,856.991 125.17,888.006C173.192,905.529 224.732,916.001 257.46,868.97z" fill="#a8a8a8" stroke-width="1px" stroke="#7c7c7c" fill-rule="evenodd"/>
    <path id="imagebot_18" d="M213.73,840.05C243.116,786.565 208.6867,748.1 170.654,713.53C162.2763,763.958 161.4764,816.55 213.73,840.05z" fill="#a8a8a8" stroke-width="1px" stroke="#7c7c7c" fill-rule="evenodd"/>
    <path id="imagebot_17" d="M175.56,838.86C140.87,788.66 91.067,802.25 43.14,820.81C84.496,850.857 131.174,875.092 175.56,838.866L175.56,838.86z" fill="#a8a8a8" stroke-width="1px" stroke="#7c7c7c" fill-rule="evenodd"/>
    <path id="imagebot_16" d="M126.56,794.08C171.454,752.743 151.072,705.314 126.03229,660.43C102.02629,705.561 84.51529,755.155 126.56,794.08z" fill="#a8a8a8" stroke-width="1px" stroke="#7c7c7c" fill-rule="evenodd"/>
    <path id="imagebot_15" d="M102.71,789.03C78.197,733.143 26.72,737.014 -23.86,746.117C11.026,783.481 52.242,816.152 102.71,789.03z" fill="#a8a8a8" stroke-width="1px" stroke="#7c7c7c" fill-rule="evenodd"/>
    <path id="imagebot_14" d="M61.808,735C113.59,702.7 102.36,652.32 86.078,603.57C54.118,643.47 27.712,688.95 61.808,735z" fill="#a8a8a8" stroke-width="1px" stroke="#7c7c7c" fill-rule="evenodd"/>
    <path id="imagebot_13" d="M43.732,727.44C30.23,667.926 -21.05,661.992 -72.438,661.365C-45.247,704.652 -10.953,744.528 43.732,727.44z" fill="#a8a8a8" stroke-width="1px" stroke="#7c7c7c" fill-rule="evenodd"/>
    <path id="imagebot_12" d="M28.354,639.98C83.493,613.83 78.104,562.49 67.512,512.2C31.194,548.17 -0.246,590.33 28.354,639.98z" fill="#a8a8a8" stroke-width="1px" stroke="#7c7c7c" fill-rule="evenodd"/>
    <path id="imagebot_11" d="M19.165,657C12.8258,596.303 -37.388,584.323 -88.345,577.597C-66.486,623.807 -37.17,667.472 19.165,657z" fill="#a8a8a8" stroke-width="1px" stroke="#7c7c7c" fill-rule="evenodd"/>
    <path id="imagebot_10" d="M5.1751,540.49C64.7641,527.32 70.9831,476.07 71.8961,424.68C28.4581,451.63 -11.6079,485.7 5.1751,540.49z" fill="#a8a8a8" stroke-width="1px" stroke="#7c7c7c" fill-rule="evenodd"/>
    <path id="imagebot_9" d="M-6.4859,585.25C10.7591,526.71 -31.1119,496.52 -75.6689,470.9C-73.0479,521.952 -62.5619,573.49 -6.4859,585.25z" fill="#a8a8a8" stroke-width="1px" stroke="#7c7c7c" fill-rule="evenodd"/>
    <path id="imagebot_8" d="M28.616,425.5C89.567,428.5522 109.113,380.773 123.579,331.456C74.562,345.963 26.914,368.229 28.616,425.5z" fill="#a8a8a8" stroke-width="1px" stroke="#7c7c7c" fill-rule="evenodd"/>
    <path id="imagebot_7" d="M-10.627,491.19C26.002,442.378 -2.6649,399.447 -35.448,359.87C-50.847,408.614 -59.048,460.56 -10.627,491.19z" fill="#a8a8a8" stroke-width="1px" stroke="#7c7c7c" fill-rule="evenodd"/>
    <path id="imagebot_6" d="M55.278,338.67C116.2,335.15 130.5,285.55 139.59,234.96C92.411,254.65 47.431,281.91 55.278,338.67z" fill="#a8a8a8" stroke-width="1px" stroke="#7c7c7c" fill-rule="evenodd"/>
    <path id="imagebot_5" d="M16.39,391.33C62.167,350.98 42.814,303.12 18.751,257.7C-6.225,302.31 -24.804,351.51 16.39,391.33z" fill="#a8a8a8" stroke-width="1px" stroke="#7c7c7c" fill-rule="evenodd"/>
   </g>
   <path id="imagebot_3" d="M365.68,905.89A13.132,17.173 0 1 1 339.416,905.89A13.132,17.173 0 1 1 365.68,905.89z" transform="matrix(1.3462 0 0 1.0294 -97.05 -48.372)" fill="#a8a8a8" stroke-width="0.84947" stroke-linecap="round" stroke="#7c7c7c"/>
  </g>
  <title label="Warstwa 1"/>
 </g>
 <metadata>image/svg+xmlOpenclipartLaurel wreath2011-08-04T18:13:55Simplification of zeimusus Laurel wreath. 
\n
\nTaken from: http://commons.wikimedia.org/wiki/Image:SPQRomani.svg The SPQR removed from the middle, and the drop shadow blurredhttps://openclipart.org/detail/153649/-by-worker-153649workerexternalsourcelaurelromanvictorywreath</metadata>
</svg>